<?xml version="1.0" encoding="UTF-8"?><svg xmlns="http://www.w3.org/2000/svg" viewBox="0 0 1000 800" width="1000" height="800"><defs><style> .title-text { font-family: Arial, sans-serif; font-size: 24px; font-weight: bold; fill: #2C3E50; } .node-title { font-family: Arial, sans-serif; font-size: 14px; font-weight: bold; fill: #FEFEFE; } .node-text { font-family: Arial, sans-serif; font-size: 12px; fill: #2C3E50; } .product-text { font-family: Arial, sans-serif; font-size: 11px; fill: #2C3E50; } .price-text { font-family: Arial, sans-serif; font-size: 10px; fill: #F39C12; font-weight: bold; } .start-node { fill: #3498DB; stroke: #2980B9; stroke-width: 2; } .question-node { fill: #7FB069; stroke: #5A8A4A; stroke-width: 2; } .budget-node { fill: #F39C12; stroke: #E67E22; stroke-width: 2; } .product-node { fill: #27AE60; stroke: #229954; stroke-width: 2; } .connection-line { stroke: #7F8C8D; stroke-width: 2; } </style><defs><marker markerWidth="10" markerHeight="7" refX="9" refY="3.5" orient="auto"><polygon points="0 0, 10 3.5, 0 7" fill="#7F8C8D" /></marker></defs></defs><rect width="1000" height="800" fill="#FEFEFE"/><text x="500" y="30" text-anchor="middle" class="title-text">刷酸产品选择决策树</text><text x="500" y="50" text-anchor="middle" class="node-text">Product Selection Decision Tree</text><g><rect x="420" y="80" width="160" height="50" rx="25" class="start-node"/><text x="500" y="100" text-anchor="middle" class="node-title">开始选择产品</text><text x="500" y="115" text-anchor="middle" class="node-title">Start Selection</text></g><line x1="500" y1="130" x2="500" y2="160" class="connection-line" marker-end="url(#arrowhead)"/><g><rect x="420" y="170" width="160" height="50" rx="25" class="question-node"/><text x="500" y="190" text-anchor="middle" class="node-title">你的肌肤类型？</text><text x="500" y="205" text-anchor="middle" class="node-title">Your Skin Type?</text></g><line x1="450" y1="220" x2="150" y2="280" class="connection-line" marker-end="url(#arrowhead)"/><g><rect x="70" y="290" width="160" height="40" rx="20" class="question-node"/><text x="150" y="310" text-anchor="middle" class="node-title">油性/痘痘肌</text></g><line x1="480" y1="220" x2="350" y2="280" class="connection-line" marker-end="url(#arrowhead)"/><g><rect x="270" y="290" width="160" height="40" rx="20" class="question-node"/><text x="350" y="310" text-anchor="middle" class="node-title">干性/敏感肌</text></g><line x1="520" y1="220" x2="650" y2="280" class="connection-line" marker-end="url(#arrowhead)"/><g><rect x="570" y="290" width="160" height="40" rx="20" class="question-node"/><text x="650" y="310" text-anchor="middle" class="node-title">混合性肌肤</text></g><line x1="550" y1="220" x2="850" y2="280" class="connection-line" marker-end="url(#arrowhead)"/><g><rect x="770" y="290" width="160" height="40" rx="20" class="question-node"/><text x="850" y="310" text-anchor="middle" class="node-title">抗衰老需求</text></g><line x1="150" y1="330" x2="150" y2="380" class="connection-line" marker-end="url(#arrowhead)"/><g><rect x="70" y="390" width="160" height="30" rx="15" class="budget-node"/><text x="150" y="408" text-anchor="middle" class="node-title">预算考虑</text></g><g><line x1="100" y1="420" x2="50" y2="470" class="connection-line" marker-end="url(#arrowhead)"/><rect x="10" y="480" width="120" height="80" rx="10" class="product-node"/><text x="70" y="500" text-anchor="middle" class="node-title">经济型</text><text x="70" y="515" text-anchor="middle" class="product-text">The Ordinary</text><text x="70" y="528" text-anchor="middle" class="product-text">水杨酸 2%</text><text x="70" y="541" text-anchor="middle" class="price-text">¥65-85</text><text x="70" y="554" text-anchor="middle" class="product-text">适合新手</text><line x1="150" y1="420" x2="150" y2="470" class="connection-line" marker-end="url(#arrowhead)"/><rect x="90" y="480" width="120" height="80" rx="10" class="product-node"/><text x="150" y="500" text-anchor="middle" class="node-title">中档型</text><text x="150" y="515" text-anchor="middle" class="product-text">Paula's Choice</text><text x="150" y="528" text-anchor="middle" class="product-text">BHA精华 2%</text><text x="150" y="541" text-anchor="middle" class="price-text">¥280-320</text><text x="150" y="554" text-anchor="middle" class="product-text">温和有效</text><line x1="200" y1="420" x2="250" y2="470" class="connection-line" marker-end="url(#arrowhead)"/><rect x="190" y="480" width="120" height="80" rx="10" class="product-node"/><text x="250" y="500" text-anchor="middle" class="node-title">高端型</text><text x="250" y="515" text-anchor="middle" class="product-text">SK-II</text><text x="250" y="528" text-anchor="middle" class="product-text">焕采精华</text><text x="250" y="541" text-anchor="middle" class="price-text">¥800+</text><text x="250" y="554" text-anchor="middle" class="product-text">奢华体验</text></g><line x1="350" y1="330" x2="350" y2="380" class="connection-line" marker-end="url(#arrowhead)"/><g><rect x="270" y="390" width="160" height="30" rx="15" class="budget-node"/><text x="350" y="408" text-anchor="middle" class="node-title">温和产品优先</text></g><g><line x1="320" y1="420" x2="280" y2="470" class="connection-line" marker-end="url(#arrowhead)"/><rect x="220" y="480" width="120" height="80" rx="10" class="product-node"/><text x="280" y="500" text-anchor="middle" class="node-title">乳酸类</text><text x="280" y="515" text-anchor="middle" class="product-text">The Ordinary</text><text x="280" y="528" text-anchor="middle" class="product-text">乳酸 5%</text><text x="280" y="541" text-anchor="middle" class="price-text">¥70-90</text><text x="280" y="554" text-anchor="middle" class="product-text">温和入门</text><line x1="380" y1="420" x2="420" y2="470" class="connection-line" marker-end="url(#arrowhead)"/><rect x="360" y="480" width="120" height="80" rx="10" class="product-node"/><text x="420" y="500" text-anchor="middle" class="node-title">杏仁酸类</text><text x="420" y="515" text-anchor="middle" class="product-text">达尔肤</text><text x="420" y="528" text-anchor="middle" class="product-text">杏仁酸精华</text><text x="420" y="541" text-anchor="middle" class="price-text">¥150-200</text><text x="420" y="554" text-anchor="middle" class="product-text">敏感肌友好</text></g><line x1="650" y1="330" x2="650" y2="380" class="connection-line" marker-end="url(#arrowhead)"/><g><rect x="570" y="390" width="160" height="30" rx="15" class="budget-node"/><text x="650" y="408" text-anchor="middle" class="node-title">分区护理方案</text></g><g><line x1="620" y1="420" x2="580" y2="470" class="connection-line" marker-end="url(#arrowhead)"/><rect x="520" y="480" width="120" height="80" rx="10" class="product-node"/><text x="580" y="500" text-anchor="middle" class="node-title">T区专用</text><text x="580" y="515" text-anchor="middle" class="product-text">水杨酸</text><text x="580" y="528" text-anchor="middle" class="product-text">控油收毛孔</text><text x="580" y="541" text-anchor="middle" class="price-text">¥100-300</text><text x="580" y="554" text-anchor="middle" class="product-text">局部使用</text><line x1="680" y1="420" x2="720" y2="470" class="connection-line" marker-end="url(#arrowhead)"/><rect x="660" y="480" width="120" height="80" rx="10" class="product-node"/><text x="720" y="500" text-anchor="middle" class="node-title">两颊专用</text><text x="720" y="515" text-anchor="middle" class="product-text">乳酸/杏仁酸</text><text x="720" y="528" text-anchor="middle" class="product-text">温和保湿</text><text x="720" y="541" text-anchor="middle" class="price-text">¥80-250</text><text x="720" y="554" text-anchor="middle" class="product-text">避开T区</text></g><line x1="850" y1="330" x2="850" y2="380" class="connection-line" marker-end="url(#arrowhead)"/><g><rect x="770" y="390" width="160" height="30" rx="15" class="budget-node"/><text x="850" y="408" text-anchor="middle" class="node-title">抗衰老专用</text></g><g><line x1="820" y1="420" x2="780" y2="470" class="connection-line" marker-end="url(#arrowhead)"/><rect x="720" y="480" width="120" height="80" rx="10" class="product-node"/><text x="780" y="500" text-anchor="middle" class="node-title">维A醇</text><text x="780" y="515" text-anchor="middle" class="product-text">Olay/露得清</text><text x="780" y="528" text-anchor="middle" class="product-text">0.25-0.5%</text><text x="780" y="541" text-anchor="middle" class="price-text">¥150-400</text><text x="780" y="554" text-anchor="middle" class="product-text">抗衰首选</text><line x1="880" y1="420" x2="920" y2="470" class="connection-line" marker-end="url(#arrowhead)"/><rect x="860" y="480" width="120" height="80" rx="10" class="product-node"/><text x="920" y="500" text-anchor="middle" class="node-title">复合酸</text><text x="920" y="515" text-anchor="middle" class="product-text">Drunk Elephant</text><text x="920" y="528" text-anchor="middle" class="product-text">果酸+水杨酸</text><text x="920" y="541" text-anchor="middle" class="price-text">¥500+</text><text x="920" y="554" text-anchor="middle" class="product-text">高效抗衰</text></g><rect x="50" y="580" width="900" height="100" rx="10" fill="#F8F9FA" stroke="#E8E8E8" stroke-width="1"/><text x="60" y="605" class="node-text" font-size="16px" font-weight="bold">产品选择建议 Product Selection Tips</text><text x="60" y="625" class="node-text" font-weight="bold">新手建议：</text><text x="140" y="625" class="node-text">从低浓度开始 → 选择单一酸类 → 建立耐受性后再升级</text><text x="60" y="640" class="node-text" font-weight="bold">预算考虑：</text><text x="140" y="640" class="node-text">经济型(¥50-150) → 中档型(¥150-400) → 高端型(¥400+)</text><text x="60" y="655" class="node-text" font-weight="bold">购买渠道：</text><text x="140" y="655" class="node-text">官方旗舰店 > 授权专柜 > 海淘代购 (注意防伪)</text><text x="60" y="670" class="node-text" fill="#E74C3C">⚠️ 重要提醒：选择产品前务必查看成分表，避免过敏成分，建议先购买小样试用</text><text x="500" y="780" text-anchor="middle" class="node-text" fill="#BDC3C7"> 《刷酸医美：输出好气色》产品选择指南 | 理性消费，科学护肤 </text></svg>