<?xml version="1.0" encoding="UTF-8"?><svg xmlns="http://www.w3.org/2000/svg" viewBox="0 0 1400 1000" width="1400" height="1000"><defs><style> .title-text { font-family: Arial, sans-serif; font-size: 24px; font-weight: bold; fill: #2C3E50; } .header-text { font-family: Arial, sans-serif; font-size: 14px; font-weight: bold; fill: #FEFEFE; } .product-name { font-family: Arial, sans-serif; font-size: 12px; font-weight: bold; fill: #2C3E50; } .product-detail { font-family: Arial, sans-serif; font-size: 10px; fill: #2C3E50; } .price-text { font-family: Arial, sans-serif; font-size: 11px; fill: #F39C12; font-weight: bold; } .rating-text { font-family: Arial, sans-serif; font-size: 10px; fill: #E67E22; } .header-bg { fill: #7FB069; stroke: #5A8A4A; stroke-width: 1; } .cell-bg { fill: #FEFEFE; stroke: #E8E8E8; stroke-width: 1; } .alt-cell-bg { fill: #F8F9FA; stroke: #E8E8E8; stroke-width: 1; } .budget-low { fill: #E8F5E5; } .budget-mid { fill: #FFF3CD; } .budget-high { fill: #F8D7DA; } </style></defs><rect width="1400" height="1000" fill="#FEFEFE"/><text x="700" y="30" text-anchor="middle" class="title-text">刷酸产品推荐矩阵</text><text x="700" y="50" text-anchor="middle" class="product-detail">Product Recommendation Matrix by Skin Type & Budget</text><g><rect x="50" y="80" width="150" height="60" class="header-bg"/><text x="125" y="105" text-anchor="middle" class="header-text">肌肤类型</text><text x="125" y="125" text-anchor="middle" class="header-text">Skin Type</text><rect x="200" y="80" width="300" height="30" class="header-bg"/><text x="350" y="100" text-anchor="middle" class="header-text">经济型 (¥50-200)</text><rect x="500" y="80" width="300" height="30" class="header-bg"/><text x="650" y="100" text-anchor="middle" class="header-text">中档型 (¥200-500)</text><rect x="800" y="80" width="300" height="30" class="header-bg"/><text x="950" y="100" text-anchor="middle" class="header-text">高端型 (¥500+)</text><rect x="1100" y="80" width="250" height="60" class="header-bg"/><text x="1225" y="105" text-anchor="middle" class="header-text">使用建议</text><text x="1225" y="125" text-anchor="middle" class="header-text">Usage Tips</text><rect x="200" y="110" width="100" height="30" class="header-bg"/><text x="250" y="130" text-anchor="middle" class="header-text" font-size="12px">果酸类</text><rect x="300" y="110" width="100" height="30" class="header-bg"/><text x="350" y="130" text-anchor="middle" class="header-text" font-size="12px">水杨酸</text><rect x="400" y="110" width="100" height="30" class="header-bg"/><text x="450" y="130" text-anchor="middle" class="header-text" font-size="12px">温和酸</text><rect x="500" y="110" width="100" height="30" class="header-bg"/><text x="550" y="130" text-anchor="middle" class="header-text" font-size="12px">果酸类</text><rect x="600" y="110" width="100" height="30" class="header-bg"/><text x="650" y="130" text-anchor="middle" class="header-text" font-size="12px">水杨酸</text><rect x="700" y="110" width="100" height="30" class="header-bg"/><text x="750" y="130" text-anchor="middle" class="header-text" font-size="12px">复合酸</text><rect x="800" y="110" width="100" height="30" class="header-bg"/><text x="850" y="130" text-anchor="middle" class="header-text" font-size="12px">专业级</text><rect x="900" y="110" width="100" height="30" class="header-bg"/><text x="950" y="130" text-anchor="middle" class="header-text" font-size="12px">奢华级</text><rect x="1000" y="110" width="100" height="30" class="header-bg"/><text x="1050" y="130" text-anchor="middle" class="header-text" font-size="12px">定制级</text></g><g><rect x="50" y="140" width="150" height="120" class="cell-bg"/><text x="125" y="165" text-anchor="middle" class="product-name">油性肌肤</text><text x="125" y="180" text-anchor="middle" class="product-detail">Oily Skin</text><text x="125" y="200" text-anchor="middle" class="product-detail">主要问题:</text><text x="125" y="215" text-anchor="middle" class="product-detail">• 出油过多</text><text x="125" y="230" text-anchor="middle" class="product-detail">• 毛孔粗大</text><text x="125" y="245" text-anchor="middle" class="product-detail">• 易长痘痘</text><rect x="200" y="140" width="100" height="120" class="budget-low"/><text x="250" y="160" text-anchor="middle" class="product-name">The Ordinary</text><text x="250" y="175" text-anchor="middle" class="product-detail">甘醇酸7%</text><text x="250" y="190" text-anchor="middle" class="price-text">¥65-85</text><text x="250" y="205" text-anchor="middle" class="rating-text">★★★★☆</text><text x="250" y="220" text-anchor="middle" class="product-detail">新手友好</text><text x="250" y="235" text-anchor="middle" class="product-detail">性价比高</text><text x="250" y="250" text-anchor="middle" class="product-detail">每周2次</text><rect x="300" y="140" width="100" height="120" class="budget-low"/><text x="350" y="160" text-anchor="middle" class="product-name">The Ordinary</text><text x="350" y="175" text-anchor="middle" class="product-detail">水杨酸2%</text><text x="350" y="190" text-anchor="middle" class="price-text">¥70-90</text><text x="350" y="205" text-anchor="middle" class="rating-text">★★★★★</text><text x="350" y="220" text-anchor="middle" class="product-detail">控油首选</text><text x="350" y="235" text-anchor="middle" class="product-detail">深层清洁</text><text x="350" y="250" text-anchor="middle" class="product-detail">隔天使用</text><rect x="400" y="140" width="100" height="120" class="budget-low"/><text x="450" y="160" text-anchor="middle" class="product-name">CeraVe</text><text x="450" y="175" text-anchor="middle" class="product-detail">乳酸洁面</text><text x="450" y="190" text-anchor="middle" class="price-text">¥120-150</text><text x="450" y="205" text-anchor="middle" class="rating-text">★★★☆☆</text><text x="450" y="220" text-anchor="middle" class="product-detail">温和入门</text><text x="450" y="235" text-anchor="middle" class="product-detail">敏感肌可用</text><text x="450" y="250" text-anchor="middle" class="product-detail">每日使用</text><rect x="500" y="140" width="100" height="120" class="budget-mid"/><text x="550" y="160" text-anchor="middle" class="product-name">Paula's Choice</text><text x="550" y="175" text-anchor="middle" class="product-detail">果酸精华8%</text><text x="550" y="190" text-anchor="middle" class="price-text">¥280-320</text><text x="550" y="205" text-anchor="middle" class="rating-text">★★★★★</text><text x="550" y="220" text-anchor="middle" class="product-detail">温和有效</text><text x="550" y="235" text-anchor="middle" class="product-detail">专业配方</text><text x="550" y="250" text-anchor="middle" class="product-detail">每周3次</text><rect x="600" y="140" width="100" height="120" class="budget-mid"/><text x="650" y="160" text-anchor="middle" class="product-name">Paula's Choice</text><text x="650" y="175" text-anchor="middle" class="product-detail">BHA精华2%</text><text x="650" y="190" text-anchor="middle" class="price-text">¥280-320</text><text x="650" y="205" text-anchor="middle" class="rating-text">★★★★★</text><text x="650" y="220" text-anchor="middle" class="product-detail">明星产品</text><text x="650" y="235" text-anchor="middle" class="product-detail">深度净化</text><text x="650" y="250" text-anchor="middle" class="product-detail">隔天使用</text><rect x="700" y="140" width="100" height="120" class="budget-mid"/><text x="750" y="160" text-anchor="middle" class="product-name">Drunk Elephant</text><text x="750" y="175" text-anchor="middle" class="product-detail">复合酸精华</text><text x="750" y="190" text-anchor="middle" class="price-text">¥450-500</text><text x="750" y="205" text-anchor="middle" class="rating-text">★★★★☆</text><text x="750" y="220" text-anchor="middle" class="product-detail">多重功效</text><text x="750" y="235" text-anchor="middle" class="product-detail">快速见效</text><text x="750" y="250" text-anchor="middle" class="product-detail">每周2次</text><rect x="800" y="140" width="100" height="120" class="budget-high"/><text x="850" y="160" text-anchor="middle" class="product-name">SK-II</text><text x="850" y="175" text-anchor="middle" class="product-detail">焕采精华</text><text x="850" y="190" text-anchor="middle" class="price-text">¥800-1200</text><text x="850" y="205" text-anchor="middle" class="rating-text">★★★★☆</text><text x="850" y="220" text-anchor="middle" class="product-detail">奢华体验</text><text x="850" y="235" text-anchor="middle" class="product-detail">温和高效</text><text x="850" y="250" text-anchor="middle" class="product-detail">每日使用</text><rect x="900" y="140" width="100" height="120" class="budget-high"/><text x="950" y="160" text-anchor="middle" class="product-name">La Mer</text><text x="950" y="175" text-anchor="middle" class="product-detail">焕新精华</text><text x="950" y="190" text-anchor="middle" class="price-text">¥1500+</text><text x="950" y="205" text-anchor="middle" class="rating-text">★★★☆☆</text><text x="950" y="220" text-anchor="middle" class="product-detail">顶级护肤</text><text x="950" y="235" text-anchor="middle" class="product-detail">修复并重</text><text x="950" y="250" text-anchor="middle" class="product-detail">隔天使用</text><rect x="1000" y="140" width="100" height="120" class="budget-high"/><text x="1050" y="160" text-anchor="middle" class="product-name">医美定制</text><text x="1050" y="175" text-anchor="middle" class="product-detail">个性化配方</text><text x="1050" y="190" text-anchor="middle" class="price-text">¥2000+</text><text x="1050" y="205" text-anchor="middle" class="rating-text">★★★★★</text><text x="1050" y="220" text-anchor="middle" class="product-detail">量身定制</text><text x="1050" y="235" text-anchor="middle" class="product-detail">专业指导</text><text x="1050" y="250" text-anchor="middle" class="product-detail">按需调整</text><rect x="1100" y="140" width="250" height="120" class="cell-bg"/><text x="1110" y="160" class="product-detail" font-weight="bold">油性肌肤建议:</text><text x="1110" y="175" class="product-detail">• 优先选择水杨酸</text><text x="1110" y="190" class="product-detail">• 从低浓度开始</text><text x="1110" y="205" class="product-detail">• 重点T区使用</text><text x="1110" y="220" class="product-detail">• 配合控油产品</text><text x="1110" y="235" class="product-detail">• 严格防晒保护</text><text x="1110" y="250" class="product-detail">• 避免过度清洁</text></g></svg>